<?xml version="1.0" encoding="utf-8"?>
<!-- Generator: Adobe Illustrator 16.0.0, SVG Export Plug-In . SVG Version: 6.00 Build 0)  -->
<!DOCTYPE svg PUBLIC "-//W3C//DTD SVG 1.1//EN" "http://www.w3.org/Graphics/SVG/1.1/DTD/svg11.dtd">
<svg version="1.1" id="Layer_1" xmlns="http://www.w3.org/2000/svg" xmlns:xlink="http://www.w3.org/1999/xlink" x="0px" y="0px"
	 width="512px" height="512px" viewBox="0 0 512 512" enable-background="new 0 0 512 512" xml:space="preserve">
<g>
	<path fill="#999999" d="M231.528,254.288L4.904,480.912c-6.296,6.296-6.296,16.496,0,22.792c3.144,3.152,7.272,4.72,11.392,4.72
		c4.128,0,8.248-1.567,11.392-4.72l228.328-228.328l228.328,228.328c3.152,3.152,7.272,4.72,11.393,4.72
		c4.119,0,8.248-1.567,11.392-4.72c6.296-6.296,6.296-16.496,0-22.792L280.512,254.288L507.28,27.504
		c6.296-6.296,6.296-16.496,0-22.792c-6.296-6.288-16.496-6.288-22.784,0L256.024,233.2L27.528,4.72
		c-6.296-6.288-16.488-6.288-22.784,0c-6.296,6.296-6.296,16.496,0,22.792L231.528,254.288z"/>
</g>
</svg>
