<?xml version="1.0" encoding="utf-8"?>
<!-- Generator: Adobe Illustrator 16.0.0, SVG Export Plug-In . SVG Version: 6.00 Build 0)  -->
<!DOCTYPE svg PUBLIC "-//W3C//DTD SVG 1.1//EN" "http://www.w3.org/Graphics/SVG/1.1/DTD/svg11.dtd">
<svg version="1.1" id="Capa_1" xmlns="http://www.w3.org/2000/svg" xmlns:xlink="http://www.w3.org/1999/xlink" x="0px" y="0px"
	 width="512px" height="512px" viewBox="0 0 512 512" enable-background="new 0 0 512 512" xml:space="preserve">
<g>
	<g>
		<path fill="#999999" d="M503.173,176.552c-4.944,0-8.828,3.884-8.828,8.828v282.483c0,14.653-11.829,26.482-26.482,26.482H44.138
			c-14.653,0-26.482-11.829-26.482-26.482V44.138c0-14.653,11.829-26.482,26.482-26.482h282.483c4.943,0,8.827-3.884,8.827-8.828
			S331.564,0,326.621,0H44.138C19.774,0,0,19.774,0,44.138v423.725C0,492.227,19.774,512,44.138,512h423.725
			C492.227,512,512,492.227,512,467.862V185.379C512,180.612,507.939,176.552,503.173,176.552z"/>
		<path fill="#999999" d="M511.823,7.062c0-0.176-0.177-0.53-0.177-0.706c0-0.353-0.176-0.53-0.353-0.883s-0.354-0.53-0.53-0.883
			c-0.176-0.176-0.176-0.53-0.353-0.706c-0.706-0.883-1.412-1.766-2.472-2.472c-0.177-0.177-0.529-0.177-0.706-0.353
			c-0.354-0.177-0.53-0.354-0.883-0.53c-0.354-0.177-0.53-0.177-0.883-0.353c-0.177,0-0.53-0.177-0.706-0.177
			c-0.53,0.177-1.06,0-1.59,0l0,0H379.586c-4.943,0-8.827,3.884-8.827,8.828s3.884,8.828,8.827,8.828H481.81L161.368,338.097
			c-3.531,3.531-3.531,9.004,0,12.535c1.766,1.766,4.061,2.648,6.179,2.648c2.119,0,4.59-0.883,6.18-2.648L494.345,30.19v102.224
			c0,4.943,3.884,8.827,8.828,8.827c4.943,0,8.827-3.884,8.827-8.827V8.828C512,8.298,511.823,7.768,511.823,7.062z"/>
		<path fill="#999999" d="M44.138,39.724c-2.472,0-4.414,1.942-4.414,4.414v123.586c0,2.472,1.942,4.414,4.414,4.414
			c2.472,0,4.414-1.942,4.414-4.414V48.552h119.172c2.472,0,4.414-1.942,4.414-4.414c0-2.472-1.942-4.414-4.414-4.414H44.138z"/>
	</g>
</g>
</svg>
