<?xml version="1.0" encoding="iso-8859-1"?>
<!-- Generator: Adobe Illustrator 18.1.1, SVG Export Plug-In . SVG Version: 6.00 Build 0)  -->
<svg xmlns="http://www.w3.org/2000/svg" xmlns:xlink="http://www.w3.org/1999/xlink" version="1.1" id="Capa_1" x="0px" y="0px" viewBox="0 0 591.6 591.6" style="enable-background:new 0 0 591.6 591.6;" xml:space="preserve" width="512px" height="512px">
<g>
	<g>
		<path d="M581.4,204c-5.712,0-10.2,4.488-10.2,10.2v326.4c0,16.932-13.668,30.6-30.6,30.6H51c-16.932,0-30.6-13.668-30.6-30.6V51    c0-16.932,13.668-30.6,30.6-30.6h326.4c5.712,0,10.2-4.488,10.2-10.2S383.112,0,377.4,0H51C22.848,0,0,22.848,0,51v489.6    c0,28.152,22.848,51,51,51h489.6c28.152,0,51-22.848,51-51V214.2C591.6,208.692,586.908,204,581.4,204z" fill="#FFFFFF"/>
		<path d="M591.396,8.16c0-0.204-0.204-0.612-0.204-0.816c0-0.408-0.204-0.612-0.408-1.02c-0.204-0.408-0.408-0.612-0.612-1.02    c-0.204-0.204-0.204-0.612-0.408-0.816c-0.816-1.02-1.632-2.04-2.856-2.856c-0.204-0.204-0.612-0.204-0.816-0.408    c-0.408-0.204-0.612-0.408-1.02-0.612c-0.408-0.204-0.612-0.204-1.02-0.408c-0.204,0-0.612-0.204-0.816-0.204    c-0.612,0.204-1.224,0-1.836,0l0,0H438.6c-5.712,0-10.2,4.488-10.2,10.2s4.488,10.2,10.2,10.2h118.116l-370.26,370.26    c-4.08,4.08-4.08,10.404,0,14.484c2.04,2.04,4.692,3.06,7.14,3.06c2.448,0,5.304-1.02,7.14-3.06L571.2,34.884V153    c0,5.712,4.488,10.2,10.2,10.2s10.2-4.488,10.2-10.2V10.2C591.6,9.588,591.396,8.976,591.396,8.16z" fill="#FFFFFF"/>
		<path d="M51,45.9c-2.856,0-5.1,2.244-5.1,5.1v142.8c0,2.856,2.244,5.1,5.1,5.1s5.1-2.244,5.1-5.1V56.1h137.7    c2.856,0,5.1-2.244,5.1-5.1s-2.244-5.1-5.1-5.1H51z" fill="#FFFFFF"/>
	</g>
</g>
<g>
</g>
<g>
</g>
<g>
</g>
<g>
</g>
<g>
</g>
<g>
</g>
<g>
</g>
<g>
</g>
<g>
</g>
<g>
</g>
<g>
</g>
<g>
</g>
<g>
</g>
<g>
</g>
<g>
</g>
</svg>
