<?xml version="1.0" encoding="utf-8"?>
<!-- Generator: Adobe Illustrator 16.0.0, SVG Export Plug-In . SVG Version: 6.00 Build 0)  -->
<!DOCTYPE svg PUBLIC "-//W3C//DTD SVG 1.1//EN" "http://www.w3.org/Graphics/SVG/1.1/DTD/svg11.dtd">
<svg version="1.1" id="Layer_1" xmlns="http://www.w3.org/2000/svg" xmlns:xlink="http://www.w3.org/1999/xlink" x="0px" y="0px"
	 width="960px" height="560px" viewBox="0 0 960 560" enable-background="new 0 0 960 560" xml:space="preserve">
<g>
	<g>
		<path fill-rule="evenodd" clip-rule="evenodd" fill="#FEFEFE" d="M316.956,241.813c0,32.453-0.01,64.905,0.039,97.36
			c0.002,1.354-0.266,1.621-1.621,1.619c-64.907-0.043-129.813-0.043-194.718,0c-1.355,0.002-1.623-0.266-1.621-1.619
			c0.042-64.907,0.042-129.813,0-194.719c-0.001-1.355,0.265-1.622,1.62-1.621c64.907,0.042,129.813,0.042,194.719,0
			c1.354,0,1.624,0.265,1.622,1.621C316.946,176.906,316.956,209.359,316.956,241.813z M311.108,177.472
			c0.354-1.165-0.41-1.822-1.936-2.343c-12.403-4.233-24.773-8.56-37.156-12.852c-17.051-5.908-34.108-11.798-51.149-17.731
			c-1.323-0.461-2.499-0.438-3.813,0.027c-22.724,8.037-45.46,16.038-68.193,24.047c-6.954,2.45-13.907,4.907-20.868,7.342
			c-0.798,0.279-1.472,0.52-1.332,1.597c0.439,3.388,0.834,6.784,1.248,10.176c1.011,8.284,2.034,16.564,3.034,24.849
			c0.717,5.938,1.386,11.881,2.109,17.818c0.856,7.045,1.768,14.083,2.618,21.127c0.874,7.243,1.688,14.492,2.552,21.736
			c0.864,7.243,1.792,14.479,2.604,21.727c0.153,1.371,0.557,2.277,1.826,2.977c6.46,3.563,12.882,7.197,19.299,10.838
			c17.933,10.174,35.86,20.359,53.782,30.553c0.683,0.387,1.204,0.467,1.976,0.041c5.773-3.178,11.596-6.264,17.388-9.406
			c19.747-10.715,39.468-21.48,59.262-32.106c1.997-1.071,2.599-2.433,2.819-4.452c0.678-6.205,1.478-12.397,2.226-18.595
			c0.834-6.916,1.667-13.832,2.493-20.75c0.865-7.243,1.714-14.488,2.583-21.731c0.713-5.938,1.451-11.871,2.167-17.808
			c0.733-6.068,1.449-12.138,2.179-18.206C309.563,190.212,310.308,184.08,311.108,177.472z"/>
		<path fill-rule="evenodd" clip-rule="evenodd" fill="#B3B2B2" d="M311.108,177.472c-0.8,6.608-1.545,12.74-2.282,18.874
			c-0.73,6.067-1.446,12.137-2.179,18.206c-0.716,5.937-1.454,11.871-2.167,17.808c-0.869,7.243-1.718,14.488-2.583,21.731
			c-0.826,6.918-1.659,13.834-2.493,20.75c-0.748,6.197-1.548,12.39-2.226,18.595c-0.22,2.02-0.822,3.381-2.819,4.452
			c-19.794,10.626-39.515,21.392-59.262,32.106c-5.792,3.143-11.615,6.229-17.388,9.406c-0.772,0.426-1.293,0.346-1.976-0.041
			c-17.922-10.193-35.849-20.379-53.782-30.553c-6.417-3.641-12.838-7.275-19.299-10.838c-1.269-0.699-1.673-1.605-1.826-2.977
			c-0.812-7.248-1.74-14.483-2.604-21.727c-0.864-7.244-1.679-14.493-2.552-21.736c-0.85-7.045-1.762-14.083-2.618-21.127
			c-0.723-5.937-1.393-11.88-2.109-17.818c-1-8.284-2.023-16.565-3.034-24.849c-0.414-3.392-0.809-6.788-1.248-10.176
			c-0.14-1.077,0.534-1.318,1.332-1.597c6.961-2.435,13.914-4.892,20.868-7.342c22.733-8.009,45.469-16.01,68.193-24.047
			c1.315-0.465,2.491-0.488,3.813-0.027c17.042,5.933,34.099,11.824,51.149,17.731c12.383,4.292,24.753,8.618,37.156,12.852
			C310.698,175.649,311.462,176.307,311.108,177.472z M216.854,154.595c-0.64-0.363-1.133,0.131-1.66,0.317
			c-10.681,3.782-21.358,7.575-32.032,11.376c-15.452,5.504-30.896,11.029-46.364,16.495c-1.261,0.445-1.535,1.013-1.366,2.304
			c0.794,6.068,1.486,12.151,2.182,18.233c1.505,13.145,2.974,26.295,4.49,39.439c1.788,15.498,3.641,30.988,5.371,46.492
			c0.168,1.504,0.682,2.285,1.988,3.007c19.046,10.501,38.042,21.089,57.088,31.587c3.385,1.865,6.585,4.102,10.271,5.396
			c0.916-0.006,1.586-0.604,2.321-1.01c9.346-5.162,18.68-10.346,28.022-15.514c12.746-7.051,25.493-14.098,38.255-21.118
			c1.011-0.557,1.576-1.239,1.698-2.417c0.242-2.355,0.606-4.698,0.898-7.049c1.774-14.308,3.518-28.617,5.314-42.92
			c2.289-18.221,4.612-36.438,6.95-54.652c0.161-1.253-0.143-1.876-1.425-2.297c-6.071-1.99-12.105-4.093-18.153-6.155
			c-17.21-5.866-34.414-11.755-51.637-17.582C225.016,157.157,221.045,155.527,216.854,154.595z"/>
		<g>
			<path fill-rule="evenodd" clip-rule="evenodd" fill="#B72934" d="M217.032,154.624c4.19,0.934,8.16,2.564,12.209,3.934
				c17.224,5.827,34.427,11.716,51.637,17.582c6.048,2.061,12.082,4.164,18.154,6.155c1.281,0.421,1.585,1.044,1.424,2.297
				c-2.338,18.214-4.66,36.432-6.949,54.652c-1.796,14.304-3.541,28.613-5.314,42.92c-0.291,2.35-0.657,4.693-0.898,7.049
				c-0.121,1.178-0.686,1.859-1.697,2.416c-12.762,7.021-25.509,14.07-38.255,21.119c-9.343,5.168-18.676,10.352-28.021,15.514
				c-0.736,0.406-1.406,1.004-2.321,1.01c0.009-23.492,0.077-168.235,0.015-168.379
				C217.021,158.803,217.026,156.714,217.032,154.624z"/>
			<path fill-rule="evenodd" clip-rule="evenodd" fill="#E42B3A" d="M216.996,258.857c-0.009,23.494-0.019,46.988-0.028,70.48
				c-3.687-1.295-6.886-3.531-10.271-5.396c-19.046-10.5-38.042-21.086-57.088-31.587c-1.307-0.722-1.82-1.503-1.988-3.006
				c-1.73-15.504-3.583-30.995-5.372-46.493c-1.516-13.145-2.983-26.293-4.489-39.438c-0.696-6.082-1.389-12.165-2.182-18.233
				c-0.169-1.291,0.105-1.859,1.366-2.304c15.467-5.465,30.911-10.992,46.364-16.495c10.674-3.801,21.351-7.595,32.032-11.376
				c0.526-0.187,1.021-0.68,1.661-0.319c-0.006,2.089-0.011,4.179-0.017,6.269c-0.116,0.2,0.017,91.589-0.048,97.512
				C216.948,258.6,216.968,258.728,216.996,258.857z"/>
		</g>
	</g>
	<path fill-rule="evenodd" clip-rule="evenodd" fill="#B3B1B1" d="M260.57,153.291c0.065-0.112,0.13-0.224,0.195-0.336
		c0.035,0.081,0.07,0.162,0.105,0.243c-0.047,0.042-0.094,0.085-0.141,0.128C260.675,153.317,260.622,153.306,260.57,153.291z"/>
	<g>
		<path fill-rule="evenodd" clip-rule="evenodd" fill="#B3B2B2" d="M215.772,195.592c13.191-0.22,27.443-0.839,43.575-0.793
			c2.616,0.007,5.516-0.06,7.94,1.036c2.298,1.039,2.134,2.719,2.133,4.6c-0.002,14.83-0.01,29.662,0.004,44.491
			c0.008,7.786-0.071,15.574,0.156,23.353c0.092,3.14-0.938,4.545-4.085,4.768c-11.706,0.822-23.405,1.766-35.107,2.654
			c-18.23,1.385-36.465,2.732-54.692,4.16c-4.946,0.388-5.703-0.022-6.078-4.9c-1.754-22.787-3.458-45.578-5.145-68.371
			c-0.304-4.104,0.451-4.854,4.78-5.11c2.332-0.138,4.605,0.172,4.583-3.538c-0.013-2.218,2.375-2.37,4.343-2.365
			C190.043,195.609,201.908,195.592,215.772,195.592z M221.95,201.636c-13.095,0-26.191,0.059-39.285-0.051
			c-2.567-0.021-3.726,0.394-3.706,3.373c0.13,19.025,0.092,38.05,0.033,57.075c-0.007,2.258,0.448,3.257,3.053,3.248
			c26.313-0.097,52.627-0.09,78.942-0.007c2.489,0.007,3.084-0.809,3.072-3.178c-0.085-19.024-0.111-38.05,0.021-57.074
			c0.021-2.883-0.916-3.471-3.587-3.444C247.647,201.706,234.797,201.636,221.95,201.636z M173.045,256.43
			c0.164-0.002,0.327-0.004,0.491-0.006c0-16.004-0.015-32.007,0.023-48.011c0.003-1.536-0.649-1.838-2.01-1.769
			c-1.455,0.074-2.257,0.348-2.117,2.134C170.682,224.659,171.852,240.545,173.045,256.43z M211.321,271.79
			c0.029-0.117,0.061-0.234,0.09-0.352c-0.732-0.048-1.465-0.135-2.197-0.141c-11.235-0.08-22.471-0.107-33.704-0.287
			c-1.118-0.018-1.159,0.292-1.248,1.085c-0.293,2.624,1.452,2.31,3.09,2.187C188.675,273.45,199.998,272.621,211.321,271.79z"/>
		<path fill-rule="evenodd" clip-rule="evenodd" fill="#7AC4EA" d="M221.95,201.636c12.848,0,25.697,0.07,38.544-0.058
			c2.671-0.027,3.607,0.561,3.587,3.444c-0.133,19.024-0.106,38.05-0.021,57.074c0.012,2.369-0.583,3.185-3.072,3.178
			c-26.314-0.083-52.629-0.09-78.942,0.007c-2.605,0.009-3.06-0.99-3.053-3.248c0.059-19.024,0.098-38.05-0.033-57.075
			c-0.021-2.979,1.139-3.395,3.706-3.373C195.759,201.694,208.855,201.636,221.95,201.636z M221.768,259.38
			c11.127,0,22.254-0.072,33.379,0.056c2.465,0.029,2.996-0.743,3.097-3.113c0.169-4.002-2.385-6.936-3.383-10.438
			c-2.756-9.672-9.096-15.887-18.007-20.14c-2.648-1.265-3.701-0.964-5.256,1.225c-4.439,6.243-9.193,12.263-13.598,18.528
			c-1.73,2.459-3.094,3.396-5.787,1.246c-2.202-1.76-4.848-2.951-7.224-4.505c-1.194-0.78-2.129-0.882-3.323,0.034
			c-4.998,3.84-10.019,7.65-15.109,11.366c-1.789,1.306-1.551,3.08-1.222,4.679c0.4,1.946,2.258,1.007,3.423,1.015
			C199.761,259.413,210.764,259.38,221.768,259.38z M199.078,211.967c-3.866-0.05-7.05,3.07-7.129,6.986
			c-0.081,4.009,2.837,7.104,6.807,7.219c4.092,0.119,7.415-3.061,7.395-7.079C206.132,215.286,202.887,212.017,199.078,211.967z"/>
		<path fill-rule="evenodd" clip-rule="evenodd" fill="#159BFF" d="M173.045,256.43c-1.193-15.885-2.364-31.771-3.613-47.652
			c-0.141-1.786,0.662-2.06,2.117-2.134c1.361-0.07,2.013,0.233,2.01,1.769c-0.038,16.004-0.023,32.007-0.023,48.011
			C173.373,256.426,173.209,256.428,173.045,256.43z"/>
		<path fill-rule="evenodd" clip-rule="evenodd" fill="#159BFF" d="M211.321,271.79c-11.323,0.831-22.646,1.66-33.968,2.492
			c-1.639,0.123-3.383,0.438-3.09-2.187c0.088-0.793,0.13-1.103,1.248-1.085c11.233,0.18,22.468,0.207,33.704,0.287
			c0.732,0.006,1.465,0.093,2.197,0.141C211.381,271.555,211.35,271.672,211.321,271.79z"/>
		<path fill-rule="evenodd" clip-rule="evenodd" fill="#75C628" d="M221.768,259.38c-11.004,0-22.007,0.032-33.009-0.047
			c-1.165-0.008-3.022,0.932-3.423-1.015c-0.329-1.599-0.567-3.373,1.222-4.679c5.09-3.716,10.111-7.526,15.109-11.366
			c1.193-0.916,2.128-0.814,3.323-0.034c2.376,1.554,5.021,2.745,7.224,4.505c2.693,2.15,4.057,1.213,5.787-1.246
			c4.404-6.266,9.158-12.285,13.598-18.528c1.555-2.188,2.607-2.489,5.256-1.225c8.911,4.253,15.251,10.468,18.007,20.14
			c0.998,3.502,3.552,6.436,3.383,10.438c-0.101,2.37-0.632,3.143-3.097,3.113C244.022,259.308,232.895,259.38,221.768,259.38z"/>
		<path fill-rule="evenodd" clip-rule="evenodd" fill="#E85634" d="M199.078,211.967c3.809,0.049,7.054,3.318,7.072,7.126
			c0.02,4.019-3.303,7.198-7.395,7.079c-3.97-0.115-6.888-3.21-6.807-7.219C192.028,215.038,195.212,211.917,199.078,211.967z"/>
	</g>
	<text transform="matrix(1 0 0 1 364.6201 224.9995)"><tspan x="0" y="0" fill="#E42B3A" font-family="'IrisUPCBold'" font-size="72">ANGULAR</tspan><tspan x="0" y="72" font-family="'MuseoSansForDell-700'" font-size="60">IMAGE GALLERY</tspan></text>
</g>
</svg>
